<svg xmlns="http://www.w3.org/2000/svg" viewBox="0 0 50 75.74" style="fill: rgba(0, 0, 0, .1);">
  <path class="a" d="M49,47.71c-1.15-3.44-3.77-8-10.16-11.48,1.15-.82,2.3-1.64,3.28-2.46,4.1-3.61,6.23-8,6.23-13A19.7,19.7,0,0,0,43.12,6.89C38.86,2.3,32.3,0,23.61,0H0V75.74H25.9a26.73,26.73,0,0,0,13.44-3.11,19.37,19.37,0,0,0,7.21-6.89,25.56,25.56,0,0,0,3.28-10A17.25,17.25,0,0,0,49,47.71Zm-2.46,7.21h0v.16a18.89,18.89,0,0,1-2.79,8.53Q38.61,72,26.07,72H3.44V60h0a29.43,29.43,0,0,1,1.8-10.16C8.36,41.31,15.08,34.92,26.07,30a20.37,20.37,0,0,0,5.08-3,8.76,8.76,0,0,0,2.46-9.51c-1.48-3.77-5.25-6.23-9.84-6.23h-11V34.1A32.86,32.86,0,0,0,3.44,45.58V3H23.61c7.71,0,13.44,2,17.05,5.9a17.14,17.14,0,0,1,4.26,11.48v.16c0,7-5.25,12.46-16.39,17.05A23.7,23.7,0,0,0,14.76,51.81a27.25,27.25,0,0,0-1.64,9.34v1.64H23a12,12,0,0,0,8.85-3.28,11.74,11.74,0,0,0,3.11-7.71,12.49,12.49,0,0,0-3-7.87,9.83,9.83,0,0,0-3.77-2.62,4.91,4.91,0,0,1,1.64-.66C32,39.84,33.77,39,35.41,38.2c5.41,2.3,8.85,5.74,10.49,10.33A14.68,14.68,0,0,1,46.56,54.92ZM16.07,31.81V14.92h7.71c3.11,0,5.74,1.64,6.56,4.1a5.39,5.39,0,0,1-1.48,5.9,16.56,16.56,0,0,1-4.1,2.3A54,54,0,0,0,16.07,31.81Zm8.2,12.13a7.46,7.46,0,0,1,5.25,2.46,9.41,9.41,0,0,1,2.13,5.74,8.17,8.17,0,0,1-2.13,5.25C28,58.86,25.9,59.68,23,59.68H16.56a35,35,0,0,1,1.31-6.56A22.08,22.08,0,0,1,24.26,43.94Z"/>
</svg>
