<?xml version="1.0" encoding="utf-8"?>
<!-- Generator: Adobe Illustrator 21.0.2, SVG Export Plug-In . SVG Version: 6.00 Build 0)  -->
<!DOCTYPE svg PUBLIC "-//W3C//DTD SVG 1.1//EN" "http://www.w3.org/Graphics/SVG/1.1/DTD/svg11.dtd">
<svg version="1.1" id="Layer_1" xmlns="http://www.w3.org/2000/svg" xmlns:xlink="http://www.w3.org/1999/xlink" x="0px" y="0px"
	 style="enable-background:new 0 0 90 90;" xml:space="preserve">
<style type="text/css">
	.st0{fill:#FFFFFF;}
</style>
<g>
	<path class="st0" d="M25.4,10.3v69.4c0,2.7,0.4,4.7,1.1,6.3c1.2,0.6,2.5,1.1,3.8,1.5c1.2-1.7,2-4.2,2-7.8V10.3c0-3.6-0.8-6.2-2-7.8
		C29,2.9,27.7,3.4,26.5,4C25.8,5.5,25.4,7.6,25.4,10.3"/>
	<path class="st0" d="M19.7,10.3c0-0.9,0-1.7-0.1-2.4c-2.5,1.7-4.7,3.6-6.8,5.7v62.8c2.1,2.1,4.4,4.1,6.8,5.7
		c0.1-0.8,0.1-1.6,0.1-2.4V10.3z"/>
	<path class="st0" d="M45,0c-3.8,0-7,3-7,10.3v69.4C38,87,41.2,90,45,90c24.9,0,45-20.1,45-45S69.9,0,45,0"/>
	<path class="st0" d="M7.1,20.7C2.6,27.7,0,36.1,0,45s2.6,17.3,7.1,24.3V20.7z"/>
</g>
</svg>
