<svg id="Layer_1" data-name="Layer 1" xmlns="http://www.w3.org/2000/svg" viewBox="0 0 90 90"><defs><style>.cls-1{fill:#fff;}</style></defs><title>logo_new</title><path class="cls-1" d="M25.4,10.3V79.7A15.49,15.49,0,0,0,26.5,86a25,25,0,0,0,3.8,1.5c1.2-1.7,2-4.2,2-7.8V10.3c0-3.6-.8-6.2-2-7.8A25,25,0,0,0,26.5,4a15.15,15.15,0,0,0-1.1,6.3"/><path class="cls-1" d="M19.7,10.3a17.72,17.72,0,0,0-.1-2.4,46.68,46.68,0,0,0-6.8,5.7V76.4a45.67,45.67,0,0,0,6.8,5.7,19.27,19.27,0,0,0,.1-2.4Z"/><path class="cls-1" d="M45,0c-3.8,0-7,3-7,10.3V79.7C38,87,41.2,90,45,90A45,45,0,0,0,45,0"/><path class="cls-1" d="M7.1,20.7a45.13,45.13,0,0,0,0,48.6Z"/></svg>