<?xml version="1.0" encoding="utf-8"?>
<!-- Generator: Adobe Illustrator 19.2.1, SVG Export Plug-In . SVG Version: 6.00 Build 0)  -->
<svg version="1.1" id="Layer_1" xmlns="http://www.w3.org/2000/svg" xmlns:xlink="http://www.w3.org/1999/xlink" x="0px" y="0px"
	 viewBox="0 0 288 18" enable-background="new 0 0 288 18" xml:space="preserve">
<g>
	<path fill="#FFFFFF" d="M0,18V0h15.4c1.4,0,2.5,0.3,3.1,0.8c0.6,0.6,1,1.4,1,2.7v4.2c0,1.2-0.3,2.1-1,2.6c-0.6,0.6-1.7,0.8-3.1,0.8
		H4.1V18H0z M13.5,3.1H4.1v5h9.4c0.7,0,1.2-0.1,1.5-0.3c0.3-0.2,0.4-0.6,0.4-1.1V4.5c0-0.5-0.1-0.9-0.4-1.1
		C14.8,3.2,14.3,3.1,13.5,3.1"/>
	<rect x="27" y="0" fill="#FFFFFF" width="4.2" height="18"/>
	<polygon fill="#FFFFFF" points="40.9,18 40.9,0 45.1,0 45.1,14.6 55.8,14.6 55.8,18 	"/>
	<polygon fill="#FFFFFF" points="62.8,18 62.8,0 67,0 67,14.6 77.7,14.6 77.7,18 	"/>
	<path fill="#FFFFFF" d="M83.1,18L93.2,0h4l10.3,18h-4.7l-2.2-3.9H89.3L87.2,18H83.1z M91.1,10.8H99l-3.9-7.3L91.1,10.8z"/>
	<path fill="#FFFFFF" d="M150.2,18l10.2-18h4l10.3,18h-4.7l-2.2-3.9h-11.4l-2.1,3.9H150.2z M158.3,10.8h7.9l-3.9-7.3L158.3,10.8z"/>
	<path fill="#FFFFFF" d="M184.9,0v14.6h11.9V0h4.2v13.7c0,1.6-0.3,2.8-0.9,3.4c-0.6,0.6-1.8,0.9-3.5,0.9h-11.4
		c-1.7,0-2.9-0.3-3.5-0.9c-0.6-0.6-0.9-1.7-0.9-3.4V0H184.9z"/>
	<path fill="#FFFFFF" d="M226.7,3.1h-13.1v11.5h13.1v-4.1h-6.8V7.5h10.9v6.3c0,1.6-0.3,2.8-0.9,3.4c-0.6,0.6-1.8,0.9-3.5,0.9h-12.4
		c-1.7,0-2.9-0.3-3.5-0.9c-0.6-0.6-0.9-1.7-0.9-3.4V4.3c0-1.6,0.3-2.8,0.9-3.4c0.6-0.6,1.8-0.9,3.5-0.9h12.4c1.7,0,2.9,0.3,3.5,0.9
		c0.6,0.6,0.9,1.7,0.9,3.2v0.3h-4.1V3.1z"/>
	<polygon fill="#FFFFFF" points="239.2,18 239.2,0 243.4,0 243.4,7.5 256.4,7.5 256.4,0 260.7,0 260.7,18 256.4,18 256.4,10.5 
		243.4,10.5 243.4,18 	"/>
	<polygon fill="#FFFFFF" points="279.7,3.1 279.7,18 275.5,18 275.5,3.1 267.3,3.1 267.3,0 288,0 288,3.1 	"/>
	<polygon fill="#FFFFFF" points="144.9,7.9 144.9,4.2 142.6,4.2 142.6,7.9 139,7.9 139,10.1 142.6,10.1 142.6,13.8 144.9,13.8 
		144.9,10.1 148.5,10.1 148.5,7.9 	"/>
	<path fill="#FFFFFF" d="M134,18l-3.9-6.8c0.9-0.1,1.7-0.4,2.2-0.8c0.6-0.6,1-1.4,1-2.7V3.5c0-1.2-0.3-2.1-1-2.7
		c-0.6-0.6-1.7-0.8-3.1-0.8h-15.4v18h4.1v-6.8h7.7l3.7,6.8H134z M117.9,3.1h9.4c0.7,0,1.2,0.1,1.5,0.3c0.3,0.2,0.4,0.6,0.4,1.1v2.2
		c0,0.5-0.1,0.9-0.4,1.1c-0.3,0.2-0.8,0.3-1.5,0.3h-9.4V3.1z"/>
</g>
</svg>
