<svg id="Layer_1" data-name="Layer 1" xmlns="http://www.w3.org/2000/svg" viewBox="0 0 288 18.1"><defs><style>.cls-1{fill:#fff;}</style></defs><title>pa_new</title><path class="cls-1" d="M0,18V0H15.4a5,5,0,0,1,3.1.8,3.54,3.54,0,0,1,1,2.7V7.7a3,3,0,0,1-1,2.6,4.43,4.43,0,0,1-3.1.8H4.1V18ZM13.5,3.1H4.1v5h9.4A2.81,2.81,0,0,0,15,7.8a1.25,1.25,0,0,0,.4-1.1V4.5A1.25,1.25,0,0,0,15,3.4a2.37,2.37,0,0,0-1.5-.3" transform="translate(0 0)"/><rect class="cls-1" x="27" width="4.2" height="18"/><polygon class="cls-1" points="40.9 18 40.9 0 45.1 0 45.1 14.6 55.8 14.6 55.8 18 40.9 18"/><polygon class="cls-1" points="62.8 18 62.8 0 67 0 67 14.6 77.7 14.6 77.7 18 62.8 18"/><path class="cls-1" d="M83.1,18,93.2,0h4l10.3,18h-4.7l-2.2-3.9H89.3L87.2,18Zm8-7.2H99L95.1,3.5Z" transform="translate(0 0)"/><path class="cls-1" d="M150.2,18,160.4,0h4l10.3,18H170l-2.2-3.9H156.4L154.3,18Zm8.1-7.2h7.9l-3.9-7.3Z" transform="translate(0 0)"/><path class="cls-1" d="M184.9,0V14.6h11.9V0H201V13.7a5,5,0,0,1-.9,3.4c-.6.6-1.8.9-3.5.9H185.2c-1.7,0-2.9-.3-3.5-.9s-.9-1.7-.9-3.4V0Z" transform="translate(0 0)"/><path class="cls-1" d="M226.7,3.1H213.6V14.6h13.1V10.5h-6.8v-3h10.9v6.3a5,5,0,0,1-.9,3.4c-.6.6-1.8.9-3.5.9H214c-1.7,0-2.9-.3-3.5-.9s-.9-1.7-.9-3.4V4.3a5,5,0,0,1,.9-3.4c.6-.6,1.8-.9,3.5-.9h12.4c1.7,0,2.9.3,3.5.9a4.53,4.53,0,0,1,.9,3.2v.3h-4.1V3.1Z" transform="translate(0 0)"/><polygon class="cls-1" points="239.2 18 239.2 0 243.4 0 243.4 7.5 256.4 7.5 256.4 0 260.7 0 260.7 18 256.4 18 256.4 10.5 243.4 10.5 243.4 18 239.2 18"/><polygon class="cls-1" points="279.7 3.1 279.7 18 275.5 18 275.5 3.1 267.3 3.1 267.3 0 288 0 288 3.1 279.7 3.1"/><polygon class="cls-1" points="144.9 7.9 144.9 4.2 142.6 4.2 142.6 7.9 139 7.9 139 10.1 142.6 10.1 142.6 13.8 144.9 13.8 144.9 10.1 148.5 10.1 148.5 7.9 144.9 7.9"/><path class="cls-1" d="M134,18l-3.9-6.8a4.41,4.41,0,0,0,2.2-.8,3.54,3.54,0,0,0,1-2.7V3.5a3.34,3.34,0,0,0-1-2.7,4.43,4.43,0,0,0-3.1-.8H113.8V18h4.1V11.2h7.7l3.7,6.8ZM117.9,3.1h9.4a2.81,2.81,0,0,1,1.5.3,1.25,1.25,0,0,1,.4,1.1V6.7a1.25,1.25,0,0,1-.4,1.1,2.81,2.81,0,0,1-1.5.3h-9.4Z" transform="translate(0 0)"/></svg>