<svg viewBox="0 0 43 44" version="1.1" xmlns="http://www.w3.org/2000/svg" xmlns:xlink="http://www.w3.org/1999/xlink" data-v-9d53981a="">
<g fill-rule="evenodd"><g transform="translate(-37.000000, -35.000000)"><g><g transform="translate(37.000000, 35.000000)"><mask fill="white"><use xlink:href="#path-1"></use></mask> <g></g> <path d="M33.3735196,19.5931679 C33.6733686,19.5931679 33.9165208,19.3512657 33.9165208,19.0527999 C33.9165208,18.7542058 33.6733686,18.5123035 33.3735196,18.5123035 C33.0736706,18.5123035 32.8305185,18.7542058 32.8305185,19.0527999 C32.8305185,19.3512657 33.0736706,19.5931679 33.3735196,19.5931679 M32.2596844,20.7018652 C32.5595334,20.7018652 32.8025566,20.4599629 32.8025566,20.1613689 C32.8025566,19.862903 32.5595334,19.6210008 32.2596844,19.6210008 C31.9597065,19.6210008 31.7168121,19.862903 31.7168121,20.1613689 C31.7168121,20.4599629 31.9597065,20.7018652 32.2596844,20.7018652 M35.6011901,17.3757734 C35.9010391,17.3757734 36.1441913,17.1337429 36.1441913,16.8352771 C36.1441913,16.5368112 35.9010391,16.2947807 35.6011901,16.2947807 C35.3013412,16.2947807 35.058189,16.5368112 35.058189,16.8352771 C35.058189,17.1337429 35.3013412,17.3757734 35.6011901,17.3757734 M34.4873549,18.4844707 C34.7873327,18.4844707 35.0302272,18.2424402 35.0302272,17.9441026 C35.0302272,17.6455085 34.7873327,17.4036063 34.4873549,17.4036063 C34.1875059,17.4036063 33.9444826,17.6455085 33.9444826,17.9441026 C33.9444826,18.2424402 34.1875059,18.4844707 34.4873549,18.4844707 M36.7150254,16.2670761 C37.0148744,16.2670761 37.2580265,16.0251739 37.2580265,15.7265798 C37.2580265,15.428114 37.0148744,15.1862117 36.7150254,15.1862117 C36.4150476,15.1862117 36.1720243,15.428114 36.1720243,15.7265798 C36.1720243,16.0251739 36.4150476,16.2670761 36.7150254,16.2670761 M11.0964278,11.9522121 C10.8477349,11.9522121 10.6460745,12.152814 10.6460745,12.400488 C10.6460745,12.648162 10.8477349,12.8488922 11.0964278,12.8488922 C11.3452497,12.8488922 11.54691,12.648162 11.54691,12.400488 C11.54691,12.152814 11.3452497,11.9522121 11.0964278,11.9522121 M14.4379336,13.0607811 C14.1891118,13.0607811 13.9874514,13.2615112 13.9874514,13.5091853 C13.9874514,13.7568593 14.1891118,13.9575894 14.4379336,13.9575894 C14.6867555,13.9575894 14.8884158,13.7568593 14.8884158,13.5091853 C14.8884158,13.2615112 14.6867555,13.0607811 14.4379336,13.0607811 M18.8932747,15.2781756 C18.6444528,15.2781756 18.4426636,15.4789058 18.4426636,15.7265798 C18.4426636,15.9742538 18.6444528,16.1751122 18.8932747,16.1751122 C19.1420965,16.1751122 19.3437569,15.9742538 19.3437569,15.7265798 C19.3437569,15.4789058 19.1420965,15.2781756 18.8932747,15.2781756 M17.7793106,14.1694784 C17.5306176,14.1694784 17.3289572,14.3702085 17.3289572,14.6178825 C17.3289572,14.8655566 17.5306176,15.066415 17.7793106,15.066415 C18.0282612,15.066415 18.2299216,14.8655566 18.2299216,14.6178825 C18.2299216,14.3702085 18.0282612,14.1694784 17.7793106,14.1694784 M22.2347805,16.3868729 C21.9858298,16.3868729 21.7842983,16.5877313 21.7842983,16.8352771 C21.7842983,17.0829511 21.9858298,17.2836812 22.2347805,17.2836812 C22.4834734,17.2836812 22.6851338,17.0829511 22.6851338,16.8352771 C22.6851338,16.5877313 22.4834734,16.3868729 22.2347805,16.3868729 M25.5761574,18.3923785 C25.8249792,18.3923785 26.0266396,18.1916484 26.0266396,17.9441026 C26.0266396,17.6963003 25.8249792,17.4955702 25.5761574,17.4955702 C25.3274644,17.4955702 25.1256752,17.6963003 25.1256752,17.9441026 C25.1256752,18.1916484 25.3274644,18.3923785 25.5761574,18.3923785 M35.6005459,20.8217902 C35.3518529,20.8217902 35.1500637,21.0225204 35.1500637,21.2700661 C35.1500637,21.5177402 35.3518529,21.7184703 35.6005459,21.7184703 C35.8493677,21.7184703 36.0510281,21.5177402 36.0510281,21.2700661 C36.0510281,21.0225204 35.8493677,20.8217902 35.6005459,20.8217902 M38.9420516,21.9303592 C38.6932298,21.9303592 38.4915695,22.1310894 38.4915695,22.3787634 C38.4915695,22.6264374 38.6932298,22.8271676 38.9420516,22.8271676 C39.1908735,22.8271676 39.3925338,22.6264374 39.3925338,22.3787634 C39.3925338,22.1310894 39.1908735,21.9303592 38.9420516,21.9303592 M40.4027685,23.83364 C40.3781569,23.8249182 40.4251895,23.7620697 40.4675833,23.6681819 C40.4924526,23.6130292 40.5062402,23.5519765 40.5062402,23.4874607 C40.5062402,23.2397866 40.3047087,23.0390565 40.0558869,23.0390565 C39.8070651,23.0390565 39.6054047,23.2397866 39.6054047,23.4874607 C39.6054047,23.4990043 39.6063067,23.5102913 39.6075953,23.5214501 C39.609657,23.5400481 39.0419154,23.3543246 38.3383591,23.1066506 C37.634674,22.8588483 37.1102282,22.6054025 37.1388343,22.5269061 C37.1557145,22.4807317 37.1649922,22.4309661 37.1649922,22.3787634 C37.1649922,22.1310894 36.963203,21.9303592 36.7143811,21.9303592 C36.5904212,21.9303592 36.4783161,21.9802532 36.3968788,22.0608017 C36.2590024,22.1975291 35.8899575,22.2443448 35.4283936,22.0818367 L34.5927595,21.7874753 C34.322934,21.6925614 34.2806691,21.4656658 34.4981788,21.2805836 L35.1942614,20.6883977 C35.2486389,20.6420951 35.3140979,20.6029751 35.385871,20.5715509 C35.6014479,20.4774066 35.8741081,20.4541912 36.0765416,20.5253766 C36.0765416,20.5253766 36.1140389,20.5385876 36.1601695,20.5548769 C36.2063001,20.5711662 36.2742074,20.582325 36.308741,20.5941251 C36.3432745,20.6059252 36.6105228,20.7134088 36.9129489,20.8198663 C37.2151173,20.9264521 37.4221897,21.0627946 37.3988667,21.1350062 C37.3852079,21.1775892 37.3777342,21.222994 37.3777342,21.2700661 C37.3777342,21.5177402 37.5795234,21.7184703 37.8282164,21.7184703 C37.9361981,21.7184703 38.0354176,21.680633 38.1129892,21.6175281 C38.2449382,21.510301 38.8782677,21.6528001 39.4984539,22.1895769 C39.9592446,22.5886001 40.3585707,23.0539349 40.6816139,23.5719854 C40.8325048,23.8140159 40.7170494,23.9443301 40.447224,23.8492879 C40.447224,23.8492879 40.4273801,23.8422335 40.4027685,23.83364 M35.9134094,27.4113819 L24.611409,37.0256496 C24.4999482,37.1205635 24.3866834,37.1777684 24.2651717,37.200086 C24.0856747,37.2333059 23.9224135,37.1862337 23.8608201,37.1644292 C23.5849385,37.0673348 23.4180693,36.8730178 23.3645939,36.5867368 L22.4323174,31.5883643 C22.3962376,31.3945603 22.4888854,31.1338035 22.6393897,31.005798 L29.5422304,25.133576 L30.0281482,24.7201873 C30.0281482,24.7201873 30.1381916,24.6266843 30.2736197,24.511505 C30.4091767,24.3960691 30.6703688,24.3559231 30.8570818,24.4217215 L35.6720612,26.1172177 C35.947814,26.2143121 36.1145543,26.4087574 36.1680297,26.6949101 C36.2215052,26.981191 36.1358156,27.2221954 35.9134094,27.4113819 M21.4745273,29.9326293 C21.4137071,29.8891485 21.3682207,29.8116782 21.3478614,29.7027837 C21.3478614,29.7027837 21.3409032,29.6649464 21.3321409,29.6183872 C21.3233787,29.5718281 21.4665382,29.4834556 21.5689791,29.3360824 C21.6290262,29.2493773 21.6643329,29.1444589 21.6643329,29.030947 C21.6643329,28.8940914 21.6129192,28.7696772 21.5283893,28.6750198 C21.3848432,28.5143074 21.2132064,28.3585973 21.2924531,28.2077611 C21.3425783,28.1122058 21.4063623,28.0275529 21.4800682,27.9648327 C21.4800682,27.9648327 21.5336724,27.9191714 21.5997758,27.8629927 C21.666008,27.8066856 21.7076287,27.7959116 21.6996396,27.8406751 C21.6950007,27.8672253 21.6922947,27.8944169 21.6922947,27.9222497 C21.6922947,28.2207156 21.935318,28.4627461 22.2352959,28.4627461 C22.5351449,28.4627461 22.7781682,28.2207156 22.7781682,27.9222497 C22.7781682,27.6237839 22.5351449,27.3818817 22.2352959,27.3818817 C22.2217659,27.3818817 22.2086226,27.3827795 22.1954792,27.3843186 C22.1737025,27.3868839 22.3020435,27.265548 22.4821849,27.1124031 C22.6621973,26.9592582 22.808836,27.0444242 22.9736434,27.2030844 C23.0708012,27.2965874 23.2028791,27.3540488 23.3490023,27.3540488 C23.6488513,27.3540488 23.8920034,27.1120183 23.8920034,26.8135525 C23.8920034,26.683623 23.8458728,26.5644675 23.7690743,26.471221 C23.6385428,26.3129456 23.5659966,26.1904554 23.7015536,26.0748913 C23.8372394,25.9595837 23.9907075,26.0275626 24.1426292,26.1400484 C24.2321845,26.2062316 24.3426145,26.2453515 24.4628375,26.2453515 C24.7628154,26.2453515 25.0058387,26.0034493 25.0058387,25.7048552 C25.0058387,25.6003216 24.9756863,25.503099 24.9237571,25.4210113 C24.8353616,25.2809491 24.7951584,25.1446065 24.9084232,25.04841 C25.0215592,24.9520852 25.1767023,24.9900507 25.3103265,25.0662384 C25.3888001,25.1110019 25.479515,25.1366543 25.5766728,25.1366543 C25.8765218,25.1366543 26.1196739,24.8946238 26.1196739,24.5961579 C26.1196739,24.514455 26.1011186,24.437626 26.0681313,24.3684928 C26.0119499,24.2512612 26.0087285,24.1123534 26.1128445,24.0237244 C26.2169606,23.9352235 26.3688823,23.9383018 26.4790546,23.9851175 C26.5439983,24.0126938 26.6155136,24.027957 26.6905081,24.027957 C26.9903571,24.027957 27.2335092,23.7859265 27.2335092,23.4874607 C27.2335092,23.4276905 27.2233295,23.3703574 27.2049031,23.3168721 C27.1737198,23.2261908 27.2104439,23.0902331 27.3179102,22.9987822 C27.4252476,22.9073314 27.5705977,22.8729571 27.6522927,22.8971987 C27.700485,22.9114357 27.7515122,22.9192597 27.8043433,22.9192597 C28.1041923,22.9192597 28.3473445,22.6773575 28.3473445,22.3787634 C28.3473445,22.3407978 28.3433499,22.3038584 28.3356185,22.2680732 C28.3228617,22.2079183 28.4014642,22.0768345 28.5251664,21.9716596 C28.6488686,21.8664847 28.7857141,21.7941449 28.832489,21.8026102 C28.860322,21.8076124 28.8887993,21.8105625 28.9183074,21.8105625 C29.2180276,21.8105625 29.4611797,21.568532 29.4611797,21.2700661 C29.4611797,21.255316 29.4601489,21.2406941 29.4584737,21.2263288 C29.4558966,21.2022155 29.5793411,21.0749795 29.7359017,20.9417153 C29.8923334,20.8085792 30.0222208,20.7007108 30.0256999,20.7012239 C30.0277616,20.7016087 30.0299521,20.7018652 30.0320138,20.7018652 C30.1687306,20.7018652 30.2932059,20.6513299 30.3879154,20.5682161 C30.5491148,20.4268713 30.7528369,20.0765876 30.9814283,19.8821424 C31.2100196,19.6876971 31.4462135,19.5054367 31.498787,19.4608015 C31.5513604,19.4162945 32.0902381,18.9389032 32.715192,18.4073852 L36.1654526,15.4722361 C36.7904064,14.9407181 37.2916581,14.5336144 37.2886944,14.5634994 C37.2867615,14.5813278 37.2858595,14.5995411 37.2858595,14.6178825 C37.2858595,14.9164766 37.5290117,15.1583789 37.8287318,15.1583789 C38.1287097,15.1583789 38.3717329,14.9164766 38.3717329,14.6178825 C38.3717329,14.3194167 38.1287097,14.0775145 37.8287318,14.0775145 C37.8242218,14.0775145 37.8197119,14.0780275 37.8153307,14.0786688 C37.8078571,14.0796949 37.9369712,13.9651569 38.1037115,13.8234273 C38.2704518,13.6815695 38.4143844,13.708248 38.5142482,13.8379209 C38.6138542,13.9674656 38.6130811,14.6008237 38.2796006,15.2576537 C37.9462489,15.9143555 37.4806905,16.4117557 37.4169066,16.4855064 C37.3531226,16.5591288 37.2085457,16.7646047 37.0539179,16.9136452 C36.9610124,17.0031721 36.8650143,17.090262 36.7657949,17.1746585 L32.7271756,20.6101578 C32.1023506,21.1416758 31.6391116,21.5131227 31.6651406,21.4283415 C31.6804746,21.3781911 31.6888502,21.3250906 31.6888502,21.2700661 C31.6888502,20.9716003 31.4456981,20.7295698 31.1458491,20.7295698 C30.8460001,20.7295698 30.602848,20.9716003 30.602848,21.2700661 C30.602848,21.568532 30.8460001,21.8105625 31.1458491,21.8105625 C31.1875986,21.8105625 31.2280595,21.805432 31.2667165,21.7961971 C31.3323044,21.7804209 31.1993245,21.9098373 30.9747277,22.1009478 C30.7502598,22.29193 30.5703761,22.4316074 30.5726956,22.4127528 C30.5739841,22.401594 30.575015,22.3904352 30.575015,22.3787634 C30.575015,22.0802976 30.3318628,21.8382671 30.0320138,21.8382671 C29.7321649,21.8382671 29.4890127,22.0802976 29.4890127,22.3787634 C29.4890127,22.5248539 29.5475135,22.6572203 29.642223,22.7541865 C29.8030359,22.9184902 29.8888543,23.0246911 29.7333246,23.1569293 C29.5779237,23.2890393 29.4274193,23.2095168 29.2673796,23.0744568 C29.1731855,22.9949343 29.051545,22.9469643 28.9183074,22.9469643 C28.6183296,22.9469643 28.3753063,23.1889948 28.3753063,23.4874607 C28.3753063,23.6052052 28.413319,23.7135867 28.4777472,23.801831 C28.5872752,23.9517693 28.6456472,24.0822119 28.5225892,24.1868737 C28.3994025,24.2916638 28.2441304,24.2370242 28.0996823,24.1430081 C28.0147659,24.0878554 27.9134847,24.0556616 27.8043433,24.0556616 C27.5044943,24.0556616 27.2613422,24.2976921 27.2613422,24.5961579 C27.2613422,24.689661 27.2854383,24.7775205 27.3274456,24.8540929 C27.3990897,24.9841507 27.4222839,25.122802 27.3152042,25.2139963 C27.2079956,25.3051906 27.054141,25.2830013 26.9310831,25.2213072 C26.8587946,25.1850091 26.7772285,25.1644871 26.6905081,25.1644871 C26.3907879,25.1644871 26.1475069,25.4063894 26.1475069,25.7048552 C26.1475069,25.7761689 26.1615523,25.8440195 26.1870659,25.9062266 C26.2299751,26.0117863 26.2146411,26.1501811 26.1105251,26.2388102 C26.0061514,26.3275675 25.8573222,26.3419329 25.7602933,26.3060195 C25.703081,26.2848562 25.6413587,26.2731844 25.5766728,26.2731844 C25.2768238,26.2731844 25.0336717,26.5150866 25.0336717,26.8135525 C25.0336717,26.8633181 25.0408876,26.9110316 25.0539021,26.9564364 C25.0759366,27.0332654 25.0194975,27.1669144 24.9059749,27.2634958 C24.7923235,27.3600771 24.650968,27.4125363 24.5848646,27.3965035 C24.5456922,27.3871404 24.5049736,27.3818817 24.4628375,27.3818817 C24.1629886,27.3818817 23.9199653,27.6237839 23.9199653,27.9222497 C23.9199653,27.9495696 23.9225424,27.9761198 23.9270524,28.002157 C23.9346549,28.0457661 23.8354354,28.1741564 23.6988476,28.2904901 C23.5621309,28.4065673 23.4287644,28.4960942 23.4005449,28.4932724 C23.3836647,28.4914768 23.3663979,28.4904507 23.3490023,28.4904507 C23.0491533,28.4904507 22.8060011,28.7324812 22.8060011,29.030947 C22.8060011,29.033897 22.8063877,29.0368471 22.8069031,29.0395406 C22.8075474,29.0445428 22.6605222,29.1734462 22.4789634,29.3280019 C22.2974047,29.4825577 22.0168842,29.6228764 21.895888,29.719586 C21.774634,29.8161673 21.5956524,30.0192062 21.4745273,29.9326293 M20.8646497,23.1838644 L20.47473,21.0934493 C20.4386502,20.8997736 20.5606773,20.7958813 20.7472614,20.8615515 L22.7610302,21.5707124 C22.9476144,21.6365108 22.9768648,21.7935036 22.8263605,21.9215091 L21.2026402,23.3027633 C21.0521358,23.4308971 20.9008584,23.3775401 20.8646497,23.1838644 M19.8254223,16.425608 C19.7310994,16.467678 19.0997027,16.3318485 18.3899613,16.0818657 C17.6800911,15.831883 17.0779448,15.4817275 16.9470267,15.3768092 C16.8699705,15.3151151 16.7721684,15.2781756 16.6656041,15.2781756 C16.613675,15.2781756 16.5640653,15.2872822 16.5179346,15.303828 C16.4397188,15.3316609 16.1858715,15.305752 15.9375651,15.2182772 C15.6892587,15.1308025 15.502288,15.0623106 15.5198125,15.0642345 C15.5302499,15.0655171 15.5409449,15.066415 15.5517689,15.066415 C15.8005907,15.066415 16.0021222,14.8655566 16.0021222,14.6178825 C16.0021222,14.3702085 15.8005907,14.1694784 15.5517689,14.1694784 C15.3029471,14.1694784 15.1012867,14.3702085 15.1012867,14.6178825 C15.1012867,14.6981746 15.1226769,14.7733362 15.1601741,14.8382368 C15.2238292,14.9487987 14.9667605,14.8764589 14.5301949,14.7226726 C14.0933714,14.5688864 13.6948184,14.3248037 13.5733068,14.2443834 C13.5019203,14.1970547 13.4163596,14.1694784 13.3240984,14.1694784 C13.2864723,14.1694784 13.2501348,14.1744806 13.2154724,14.1837155 C13.1567138,14.1991069 12.9353384,14.1610131 12.7155093,14.083671 C12.4956802,14.0062008 12.4620486,13.9143651 12.5646184,13.7853335 C12.6247943,13.7094023 12.6607453,13.6135906 12.6607453,13.5091853 C12.6607453,13.2615112 12.4590849,13.0607811 12.2102631,13.0607811 C11.9614413,13.0607811 11.7597809,13.2615112 11.7597809,13.5091853 C11.7597809,13.559464 11.7684143,13.607434 11.7840059,13.6523257 C11.8105504,13.7282569 11.5166288,13.6614323 11.1014532,13.5152136 C10.6861489,13.3689948 10.2944252,13.1656995 10.1892784,13.1110598 C10.1274272,13.0789943 10.0572005,13.0607811 9.98259259,13.0607811 C9.96197555,13.0607811 9.94174509,13.062705 9.92203005,13.0657833 C9.88878508,13.0710421 9.68519187,13.0165307 9.46613588,12.9394452 C9.24733761,12.8622314 9.17865712,12.751413 9.25158987,12.6354641 C9.29437022,12.5673569 9.31923952,12.4870649 9.31923952,12.400488 C9.31923952,12.152814 9.11757915,11.9522121 8.86888618,11.9522121 C8.6199355,11.9522121 8.41827513,12.152814 8.41827513,12.400488 C8.41827513,12.4329383 8.42201197,12.4643625 8.42871251,12.4947606 C8.44018073,12.5459372 8.1105659,12.4620538 7.6808296,12.3107046 C7.2510933,12.1593553 6.8574368,12.0023626 6.792622,11.9797884 C6.7278072,11.9570861 6.47589282,11.8864137 6.23493123,11.8015042 C5.99384079,11.7165947 5.87877197,11.5925653 5.93031456,11.4908535 C5.96072468,11.4309551 5.97786259,11.3634892 5.97786259,11.2917907 C5.97786259,11.2543382 5.97283719,11.2182966 5.96368838,11.1837941 C5.94822561,11.1253066 6.03997141,11.0491189 6.18557921,11.0151295 C6.27333046,10.9944793 6.36159714,10.9760095 6.45037924,10.9594637 C6.64636992,10.9232938 6.84416459,10.8970001 7.0427324,10.8804543 C7.3718318,10.8530062 7.4984977,10.8908435 7.39837623,11.0189773 C7.33948883,11.0942672 7.30443987,11.1887963 7.30443987,11.2917907 C7.30443987,11.5394648 7.50610024,11.7401949 7.75505092,11.7401949 C8.00374389,11.7401949 8.20553311,11.5394648 8.20553311,11.2917907 C8.20553311,11.1962355 8.17525184,11.1079912 8.12383812,11.0356514 C8.03647343,10.9123916 8.28490869,10.8880218 8.73809687,10.97524 C9.19141391,11.0624582 9.53984178,11.209703 9.53584723,11.2386902 C9.53339896,11.2561339 9.53211039,11.273834 9.53211039,11.2917907 C9.53211039,11.5394648 9.73377076,11.7401949 9.98259259,11.7401949 C10.0718901,11.7401949 10.1547448,11.714286 10.2244562,11.6696508 C10.343133,11.5934631 10.9470832,11.6764487 11.6341459,11.9184792 C12.3212085,12.1603814 12.8768376,12.366242 12.8752913,12.3784269 C12.8743893,12.3856096 12.8736162,12.3929205 12.8736162,12.400488 C12.8736162,12.648162 13.0752765,12.8488922 13.3240984,12.8488922 C13.40167,12.8488922 13.4746027,12.8293963 13.538129,12.7948938 C13.6463684,12.7362781 14.2638485,12.844403 14.9589003,13.0892553 C15.6539521,13.3339793 16.2198896,13.7044001 16.3562198,13.8342013 C16.4366262,13.9106455 16.5453811,13.9575894 16.6656041,13.9575894 C16.7309344,13.9575894 16.7927855,13.9436089 16.8485803,13.9183412 C16.9434187,13.8753735 17.5742999,14.0101769 18.2831393,14.2597749 C18.9921076,14.5093728 19.5925787,14.8604261 19.7238834,14.9664988 C19.8011973,15.0289624 19.8997725,15.066415 20.0071099,15.066415 C20.0595545,15.066415 20.1096797,15.0570518 20.1561969,15.0402495 C20.2353147,15.0116471 20.4916102,15.0374277 20.7426226,15.1258003 C20.9935061,15.2141729 21.1800903,15.2826648 21.1590867,15.2803561 C21.1464588,15.2790735 21.1338308,15.2781756 21.1209452,15.2781756 C20.8719945,15.2781756 20.6703341,15.4789058 20.6703341,15.7265798 C20.6703341,15.9742538 20.8719945,16.1751122 21.1209452,16.1751122 C21.3696382,16.1751122 21.5714274,15.9742538 21.5714274,15.7265798 C21.5714274,15.6428247 21.5481044,15.5649696 21.5076434,15.4982733 C21.4388341,15.3848897 21.6928102,15.460436 22.1336281,15.6156331 C22.5745749,15.7709585 22.9759628,16.0173499 23.0977322,16.0989246 C23.1693764,16.1470228 23.2555813,16.1751122 23.3484869,16.1751122 C23.3868861,16.1751122 23.4238679,16.1698535 23.4591746,16.1603621 C23.5187062,16.1444576 23.7411125,16.1816536 23.9611993,16.2592521 C24.181415,16.3367224 24.2135003,16.427532 24.1095131,16.5572049 C24.0484352,16.6335208 24.0119688,16.7299739 24.0119688,16.8352771 C24.0119688,17.0829511 24.2135003,17.2836812 24.4623221,17.2836812 C24.7111439,17.2836812 24.9128043,17.0829511 24.9128043,16.8352771 C24.9128043,16.7841005 24.9039132,16.7351044 24.8875484,16.6895714 C24.8599732,16.6122293 25.1522196,16.6785408 25.567524,16.8248878 C25.9828284,16.9711066 26.3744232,17.1764542 26.4807297,17.2322482 C26.5432251,17.2650832 26.6143539,17.2836812 26.6899926,17.2836812 C26.7115117,17.2836812 26.7325153,17.2817573 26.7531323,17.2784225 C26.7876658,17.2726507 26.9920322,17.3265208 27.2105727,17.403478 C27.4291133,17.4804352 27.4959898,17.5908689 27.4218973,17.7073308 C27.3786016,17.7758228 27.3532168,17.8568844 27.3532168,17.9441026 C27.3532168,18.1916484 27.5550061,18.3923785 27.8038279,18.3923785 C28.0526497,18.3923785 28.2543101,18.1916484 28.2543101,17.9441026 C28.2543101,17.9122936 28.250831,17.8813824 28.2443881,17.8514974 C28.2334353,17.8010904 28.3463136,17.8057078 28.3861303,17.9393569 C28.407907,18.0129793 28.3888362,18.0951953 28.3260831,18.1744613 C28.3070124,18.1984463 28.2838182,18.222303 28.2566295,18.2453902 L27.5606758,18.8375761 C27.5042366,18.8854179 27.4359427,18.9254356 27.3609482,18.9569881 C27.2420137,19.006882 27.1323569,18.8529676 26.996671,18.7254751 C26.9166512,18.6503135 26.809056,18.6042674 26.6899926,18.6042674 C26.6012105,18.6042674 26.5188713,18.6299198 26.4495465,18.6741703 C26.3313851,18.7495883 25.7266617,18.6654484 25.0393414,18.4234179 C24.352021,18.1813874 23.7960053,17.9760399 23.7975516,17.9647528 C23.7983248,17.9579549 23.798969,17.9510287 23.798969,17.9441026 C23.798969,17.6963003 23.5973087,17.4955702 23.3484869,17.4955702 C23.2715595,17.4955702 23.1991422,17.5148095 23.1357448,17.5487989 C23.0280208,17.6065168 22.4096387,17.4973658 21.7142003,17.2523853 C21.0186332,17.007533 20.4511493,16.63801 20.3152057,16.5093632 C20.2349282,16.433432 20.1266887,16.3868729 20.0071099,16.3868729 C19.9421663,16.3868729 19.8808306,16.4007252 19.8254223,16.425608 M19.8582807,40.9357186 C19.7499124,40.8338785 19.7268471,40.7089513 19.8106038,40.6852228 C19.8600847,40.6713705 19.9122716,40.6635465 19.9663913,40.6635465 C20.0377778,40.6635465 20.1059428,40.6766292 20.1688248,40.7001012 C20.2759045,40.7398624 20.351801,40.8315698 20.3582438,40.8660723 L20.3698409,40.9285359 C20.4221566,41.208532 20.2748737,41.3017785 20.0582659,41.1157985 C19.9901009,41.0571828 19.9234821,40.9971561 19.8582807,40.9357186 M18.8081005,39.5583123 C18.822017,39.5567731 18.8359335,39.555747 18.8503655,39.555747 C19.1790783,39.555747 19.4455535,39.820993 19.4455535,40.1481895 C19.4455535,40.1975704 19.4388529,40.2451556 19.4269981,40.2905604 C19.4066388,40.3675176 19.2195392,40.2448991 19.0513815,40.0071012 C18.8833527,39.7693034 18.7849064,39.5611341 18.8081005,39.5583123 M18.1730959,36.4193548 C18.2738617,36.5247863 18.3355839,36.6671571 18.3355839,36.8245347 C18.3348108,36.9430488 18.2997618,37.0528412 18.2399724,37.1449333 C18.1377892,37.3020544 17.938706,37.1110721 17.8807206,36.7995236 C17.8224775,36.4881033 18.0023611,36.240301 18.1730959,36.4193548 M17.5522655,34.0472763 C17.6112817,34.0271391 17.6744214,34.0161086 17.740267,34.0161086 C18.0691087,34.0161086 18.3355839,34.2814828 18.3355839,34.6086793 C18.3340376,34.9369019 18.0683356,35.2016348 17.740267,35.2025375 C17.7123052,35.2026609 17.6851165,35.2002239 17.6584432,35.1957348 C17.6134723,35.1885521 17.534741,34.9445976 17.4810078,34.6571624 C17.4274036,34.3697271 17.4522729,34.081394 17.5522655,34.0472763 M17.0854185,30.9102427 C17.1691752,31.0123393 17.2194292,31.1427819 17.2194292,31.2848962 C17.2194292,31.3880189 17.1928848,31.4847285 17.1461099,31.5688684 C17.0668632,31.7120089 16.8998652,31.5412921 16.8443281,31.2435958 C16.7887909,30.9457713 16.9430321,30.7368324 17.0854185,30.9102427 M16.4783757,28.4957094 C16.5248929,28.4833963 16.5736006,28.4765984 16.6241124,28.4765984 C16.9529541,28.4765984 17.2194292,28.7417161 17.2194292,29.0690408 C17.2194292,29.3963656 16.9529541,29.6616116 16.6241124,29.6616116 C16.6112267,29.6616116 16.5984699,29.6604572 16.5859709,29.6590463 C16.5649673,29.6566093 16.5016987,29.4070114 16.4450019,29.1022607 C16.3880473,28.79751 16.3997733,28.5167444 16.4783757,28.4957094 M16.0305995,26.8734509 C16.0296975,26.8667812 16.0289244,26.8601116 16.0289244,26.8533137 C16.0289244,26.5259889 16.2953995,26.2606147 16.6241124,26.2606147 C16.9529541,26.2606147 17.2194292,26.5259889 17.2194292,26.8533137 C17.2194292,27.180382 16.9529541,27.4457562 16.6241124,27.4457562 C16.4916479,27.4457562 16.3698786,27.4024036 16.2716899,27.329166 C16.1044343,27.2047518 16.0522474,26.9967107 16.0452891,26.9600277 C16.0384597,26.9232165 16.0320169,26.8846097 16.0305995,26.8734509 M16.0008337,25.4054915 C16.0692564,25.5013033 16.1094597,25.6185348 16.1094597,25.7452578 C16.1088154,25.8333738 16.0889715,25.9163593 16.0541802,25.9907513 C15.9949063,26.1177308 15.8602513,25.9672794 15.8085798,25.6907464 C15.7570372,25.4140851 15.8843474,25.2423422 16.0008337,25.4054915 M15.2166132,35.5060007 C15.0851796,35.6178452 14.9792596,35.7027547 14.9801616,35.6958285 C14.9808059,35.6917242 14.9813213,35.6873632 14.9813213,35.6831306 C14.9813213,35.3846648 14.7381692,35.1426343 14.4383202,35.1426343 C14.1384712,35.1426343 13.8953191,35.3846648 13.8953191,35.6831306 C13.8953191,35.8217819 13.9481502,35.9477352 14.0346129,36.0427774 C14.1815093,36.2041311 14.3664183,36.2291422 14.3499247,36.243251 L14.3199011,36.2687752 C14.2432315,36.3340606 14.1647579,36.3966525 14.0849958,36.4570639 C13.9525313,36.5577496 13.7988056,36.4716858 13.6463684,36.3579173 C13.5566843,36.2910928 13.4454812,36.2514598 13.3244849,36.2514598 C13.0246359,36.2514598 12.7816127,36.493362 12.7816127,36.7918279 C12.7816127,36.8631416 12.795658,36.9309922 12.8209139,36.993071 C12.8639519,37.0985025 12.8130536,37.2222753 12.6613896,37.2844824 C12.5094678,37.3465613 12.3467221,37.3770877 12.2986586,37.3683658 C12.2701814,37.3631071 12.2409309,37.3601571 12.2107785,37.3601571 C12.1235427,37.3601571 12.0417189,37.3808073 11.9691727,37.4173619 C11.8455993,37.479569 11.7010224,37.5959027 11.6046377,37.6173225 C11.5465235,37.630277 11.4881515,37.6423336 11.4295218,37.6531076 C11.2763115,37.6813253 11.1224569,37.7037711 10.9680868,37.7203169 C10.7119202,37.7476368 10.4833288,37.6756817 10.4299822,37.5975701 C10.3765068,37.5194585 10.3256085,37.4582775 10.343133,37.4407056 C10.3534415,37.4307012 10.3643943,37.4205685 10.3763779,37.4103075 C10.3763779,37.4103075 10.446347,37.3507939 10.532552,37.2775563 C10.6187569,37.2041904 10.7562468,37.2292015 10.8723465,37.2829433 C10.9406404,37.3144958 11.0165368,37.3323242 11.0969433,37.3323242 C11.3966634,37.3323242 11.6398155,37.0904219 11.6398155,36.7918279 C11.6398155,36.726799 11.6278319,36.6648484 11.606184,36.6072588 C11.5694599,36.5099079 11.5962621,36.3726674 11.7019244,36.2827557 C11.8075867,36.192844 11.9547407,36.1677047 12.0437806,36.1969484 C12.0962251,36.2141355 12.1522777,36.2236269 12.2107785,36.2236269 C12.5104987,36.2236269 12.7536508,35.9815964 12.7536508,35.6831306 C12.7536508,35.639778 12.74811,35.5979646 12.7378015,35.5579468 C12.7206636,35.4899679 12.7889575,35.3581145 12.9072477,35.2574288 C13.0256668,35.1567431 13.1649606,35.0936382 13.2212709,35.104797 C13.2546447,35.1113383 13.2891783,35.1149297 13.3244849,35.1149297 C13.6243339,35.1149297 13.8674861,34.8728992 13.8674861,34.5744333 C13.8674861,34.5536549 13.8660686,34.5332612 13.8634915,34.5132523 C13.8592393,34.4796477 13.9717309,34.3518987 14.1186273,34.2269714 C14.2653948,34.1020442 14.3964418,34.0022563 14.4112603,34.0040519 C14.4201514,34.0052063 14.4291714,34.0061041 14.4383202,34.0061041 C14.5827683,34.0061041 14.7135576,33.9499254 14.8103288,33.8580897 C14.9744919,33.7023796 15.0051598,33.4729187 15.0382759,33.4447011 L15.0980653,33.3937811 C15.315575,33.2086989 15.5342444,33.2856561 15.5864313,33.5657805 C15.5864313,33.5657805 15.6066617,33.6740337 15.6316599,33.8076827 C15.6565292,33.9412035 15.6495709,34.0426588 15.6150374,34.0381697 C15.5944204,34.0354761 15.5735456,34.033937 15.5521555,34.033937 C15.2524353,34.033937 15.0091543,34.2759675 15.0091543,34.5744333 C15.0091543,34.8728992 15.2524353,35.1149297 15.5521555,35.1149297 C15.5627217,35.1149297 15.5730302,35.1139036 15.5832099,35.1126209 C15.6003478,35.1105688 15.5859159,35.158154 15.5421047,35.2125371 C15.5147871,35.2465265 15.4856655,35.2771812 15.4543534,35.3037314 C15.4543534,35.3037314 15.347918,35.3942844 15.2166132,35.5060007 M14.4606124,18.4639487 L14.4401242,18.3536434 C14.3878085,18.0737755 14.564213,17.9237089 14.8340384,18.0187511 C14.8340384,18.0187511 14.8677988,18.0305512 14.9094194,18.0453014 C14.9512978,18.0599232 14.9668894,18.2582164 14.8176736,18.4070004 C14.6682001,18.5557844 14.4719517,18.524745 14.4606124,18.4639487 M16.2001746,20.6210601 C16.0942546,20.5143461 16.0289244,20.3677425 16.0289244,20.2057475 C16.0289244,20.0827442 16.0665505,19.9688475 16.1311075,19.8743184 C16.2408932,19.713606 16.4498984,19.9120274 16.508657,20.227039 C16.5674155,20.5420507 16.3796717,20.8020379 16.2001746,20.6210601 M16.0289244,22.4216029 C16.0289244,22.0942781 16.2953995,21.8290322 16.6241124,21.8290322 C16.6570996,21.8290322 16.6891849,21.8322388 16.7203681,21.8380105 C16.7728127,21.8476302 16.8559251,22.0892759 16.908112,22.3690155 C16.9602989,22.6486268 16.9320793,22.938499 16.8256439,22.9780038 C16.7628908,23.0010909 16.6951123,23.0140454 16.6241124,23.0140454 C16.2953995,23.0140454 16.0289244,22.7489277 16.0289244,22.4216029 M16.6241124,24.0448876 C16.9529541,24.0448876 17.2194292,24.3101335 17.2194292,24.6373301 C17.2194292,24.9646548 16.9529541,25.2299008 16.6241124,25.2299008 C16.2953995,25.2299008 16.0289244,24.9646548 16.0289244,24.6373301 C16.0289244,24.3101335 16.2953995,24.0448876 16.6241124,24.0448876 M16.1094597,23.5294024 C16.1086865,23.6929365 16.0424543,23.8405661 15.9355034,23.9477932 C15.7540735,24.1299253 15.4683988,23.8666033 15.4093825,23.5503091 C15.3503662,23.2338866 15.3477891,22.9588927 15.4065477,22.9473491 C15.4413389,22.9406795 15.4772899,22.9369599 15.5142717,22.9369599 C15.8429845,22.9369599 16.1094597,23.2022058 16.1094597,23.5294024 M16.1094597,21.3136752 C16.1079134,21.6418979 15.8422114,21.906759 15.5142717,21.9075292 C15.4252318,21.9076568 15.3413463,21.8877762 15.2660941,21.8526324 C15.1378819,21.7926058 15.0396933,21.5684037 15.0096698,21.4075631 C14.9796462,21.2467224 15.0077369,20.9468457 15.1719,20.8301273 C15.2684135,20.7615071 15.3863172,20.7211045 15.5142717,20.7211045 C15.8429845,20.7211045 16.1094597,20.9863505 16.1094597,21.3136752 M14.9574829,20.405195 C14.9183105,20.5106265 14.8183179,20.3818514 14.7725739,20.136486 C14.7268298,19.8911207 14.8232144,19.7596521 14.91161,19.9080513 C14.9634103,19.9951412 14.993305,20.0967248 14.993305,20.2057475 C14.993305,20.2760352 14.9805482,20.3429879 14.9574829,20.405195 M16.1079201,19.099359 C16.1079201,19.4260425 15.8422114,19.6909036 15.5142717,19.6918015 C15.1855588,19.6919297 14.9189548,19.4265555 14.9189548,19.099359 C14.9189548,18.7704951 15.1855588,18.5052491 15.5142717,18.5052491 C15.8429845,18.5052491 16.1094597,18.7704951 16.1079201,19.099359 M17.2248412,25.4511528 C17.3113039,25.3033949 17.4884815,25.4800118 17.5447918,25.7824537 C17.6012309,26.0848957 17.4391295,26.3055064 17.287852,26.130557 C17.1988122,26.0275626 17.145079,25.893657 17.145079,25.7469252 C17.145079,25.6385437 17.1742006,25.537858 17.2248412,25.4511528 M17.145079,27.9627805 C17.145079,27.6337884 17.4115542,27.3685424 17.740267,27.3685424 C17.7576627,27.3685424 17.7748006,27.3696968 17.7916808,27.3716207 C17.8199003,27.3745707 17.8880654,27.6227578 17.944118,27.9232758 C18.0001705,28.2240504 17.98445,28.5076378 17.8991471,28.5322641 C17.8487642,28.546886 17.7955465,28.5548382 17.740267,28.5549667 C17.4115542,28.555223 17.145079,28.2899771 17.145079,27.9627805 M18.31574,31.0264482 C18.3818434,30.8938252 18.5274512,31.0506897 18.5804112,31.3346619 C18.6333712,31.6185058 18.4971699,31.8021771 18.3721791,31.6358212 C18.2986021,31.5379573 18.2549198,31.4168779 18.2549198,31.2848962 C18.2549198,31.1919062 18.2769542,31.1043032 18.31574,31.0264482 M17.145079,30.1769685 C17.145079,29.849772 17.4115542,29.5843978 17.740267,29.5843978 C18.0691087,29.5843978 18.3355839,29.849772 18.3355839,30.1769685 C18.3340376,30.5051911 18.0683356,30.7700523 17.740267,30.7708219 C17.4115542,30.7709501 17.145079,30.5058325 17.145079,30.1769685 M17.145079,32.3943631 C17.145079,32.0654991 17.4115542,31.8003815 17.740267,31.8003815 C18.0691087,31.8003815 18.3355839,32.0654991 18.3355839,32.3928239 C18.3340376,32.7211748 18.0683356,32.9859077 17.740267,32.9868056 C17.4115542,32.9869338 17.145079,32.7215596 17.145079,32.3943631 M18.2549198,33.5007516 C18.2549198,33.1735551 18.5215238,32.9083091 18.8503655,32.9083091 C18.85436,32.9083091 18.8583546,32.9086939 18.8623491,32.909207 C18.8690497,32.9102331 18.9217519,33.1644485 18.9801239,33.4776644 C19.0384959,33.7907521 19.0360476,34.0674134 18.9705885,34.0810092 C18.9316739,34.0890897 18.8914707,34.0933223 18.8503655,34.0933223 C18.5215238,34.0933223 18.2549198,33.8279481 18.2549198,33.5007516 M18.2549198,35.716607 C18.2549198,35.3892822 18.5215238,35.1240363 18.8503655,35.1240363 C18.9484252,35.1240363 19.0409442,35.147893 19.1222526,35.1900912 C19.2607733,35.2616615 19.3540654,35.482657 19.3793212,35.6179735 C19.4045771,35.7532899 19.3849909,36.0509862 19.2145138,36.1842505 C19.1141346,36.2623621 18.9878553,36.3090495 18.8503655,36.3090495 C18.5215238,36.3090495 18.2549198,36.0438035 18.2549198,35.716607 M19.4121796,36.6104653 C19.4571505,36.4969534 19.5686114,36.6327829 19.616546,36.8898201 C19.6644806,37.146729 19.5584317,37.2912803 19.461274,37.1377507 C19.4041905,37.0474542 19.3710744,36.9408684 19.3710744,36.8259456 C19.3710744,36.7495014 19.3857641,36.6769051 19.4121796,36.6104653 M19.525831,38.6438038 C19.6888345,38.4665456 19.9564693,38.712424 20.0161299,39.0319248 C20.0756616,39.3512973 20.0895781,39.6206477 20.0458957,39.6274455 C20.0199956,39.6316782 19.99358,39.6341152 19.9663913,39.6342435 C19.6376785,39.6343717 19.3710744,39.369254 19.3710744,39.0402618 C19.3710744,38.8872452 19.429833,38.7483374 19.525831,38.6438038 M18.2549198,37.9323341 C18.2549198,37.6051376 18.5215238,37.3398917 18.8503655,37.3398917 C19.1790783,37.3398917 19.4455535,37.6051376 19.4455535,37.9323341 C19.4455535,38.2596589 19.1790783,38.5250331 18.8503655,38.5250331 C18.5215238,38.5250331 18.2549198,38.2596589 18.2549198,37.9323341 M9.54486718,31.7203459 L6.83102123,17.1704258 C6.7775458,16.8840167 6.8633642,16.6430122 7.08551274,16.453954 C7.12442739,16.4208623 7.26552522,16.3104287 7.45004767,16.276311 C7.57181703,16.2537369 7.69822522,16.2665631 7.83623049,16.3151744 L12.6512099,18.0107989 C12.8379229,18.076469 13.0184508,18.2868188 13.0545306,18.4804945 L14.8811999,28.273816 C14.9175374,28.4674918 14.8247607,28.7285051 14.6742564,28.8565106 L10.7915535,32.1592587 C10.6799638,32.2543009 10.5665701,32.3112492 10.4453161,32.3336951 C10.2659479,32.366915 10.1026868,32.3198428 10.0408357,32.29791 C9.76508288,32.2009439 9.59821376,32.0064986 9.54486718,31.7203459 M12.7277507,6.70077848 C12.7532642,6.7659356 12.7673096,6.83647974 12.7673096,6.91074347 C12.7673096,7.00514435 12.7447597,7.09402996 12.7049431,7.17291113 C12.6370357,7.30694498 12.5351102,7.18599386 12.5583044,6.94793947 C12.5816274,6.70988508 12.6845837,6.59034484 12.7277507,6.70077848 M13.1077484,5.2384627 C13.1645741,5.22024949 13.2251366,5.21024505 13.2881474,5.21024505 C13.3801509,5.21024505 13.4666136,5.23140829 13.5437986,5.26886081 C13.6752322,5.33260706 13.7187857,5.26988691 13.6815462,5.06992635 L13.6138966,4.70797081 C13.603588,4.6525616 13.5886407,4.60664378 13.5700854,4.57073041 C13.5334901,4.49967322 13.5334901,4.49967322 13.5700854,4.57073041 C13.5886407,4.60664378 13.6037169,4.6525616 13.6140254,4.70797081 L14.4759463,9.32925292 C14.6259352,10.1335843 14.7246393,10.6622805 14.696162,10.5100335 L14.6447482,10.2343983 C14.6447482,10.2343983 14.6224561,10.1146015 14.5948808,9.96658711 C14.5673055,9.81870095 14.5126704,9.707626 14.4719517,9.71352606 C14.4478556,9.71698913 14.423244,9.71904133 14.398117,9.71904133 C14.0692753,9.71904133 13.8028001,9.45379538 13.8028001,9.1264706 C13.8028001,8.97537789 13.8598835,8.83813748 13.9538199,8.73424521 C14.1130865,8.55762835 14.3071443,8.42397928 14.2802133,8.27981273 L14.2315056,8.0185429 C14.2315056,8.0185429 14.2070228,7.88745908 14.1768704,7.72572062 C14.146718,7.56398216 13.9822972,7.36722815 13.889134,7.21587892 C13.8344988,7.12712157 13.8028001,7.02284451 13.8028001,6.91074347 C13.8028001,6.83724931 13.8167166,6.76721822 13.8417148,6.70270241 C13.8842374,6.59303834 13.9297237,6.40090177 13.9020196,6.25186126 C13.8741866,6.10282074 13.8039598,6.15810169 13.6378639,6.28110501 C13.5403195,6.35344481 13.419581,6.3964126 13.2881474,6.39666913 C13.1590332,6.39679739 13.0399699,6.355497 12.942941,6.28572244 C12.7780047,6.16682351 12.7661499,5.84103787 12.8260681,5.6546731 C12.8859864,5.46818006 13.0113637,5.26950212 13.1077484,5.2384627 M14.5867628,10.7813077 C14.687142,10.815682 14.775151,11.0402688 14.6352129,11.1179956 C14.565115,11.1571156 14.4679572,11.1608352 14.3537904,11.1206891 C14.3537904,11.1206891 14.2601117,11.0877258 14.1446563,11.0470667 C14.0292009,11.0064076 14.0094859,10.8732716 14.1413061,10.8090123 C14.2187488,10.771175 14.3057269,10.7498835 14.398117,10.7498835 C14.4642203,10.7498835 14.5276177,10.7610423 14.5867628,10.7813077 M13.8834643,10.2343983 C13.8826911,10.3677908 13.8382357,10.4898963 13.7638855,10.5881451 C13.6370907,10.7556553 13.263407,10.7205115 13.1056867,10.5314532 C13.0062095,10.4120412 12.9327613,10.2723639 12.9075054,10.1376887 C12.9075054,10.1376887 12.8948775,10.0699663 12.8794147,9.98633946 C12.8638231,9.9027126 12.9251588,9.74764377 13.0492475,9.69249108 C13.1221803,9.66004078 13.2029733,9.64195583 13.2881474,9.64195583 C13.6169891,9.64195583 13.8834643,9.90720177 13.8834643,10.2343983 M12.7616399,9.20086259 C12.7555837,9.24164993 12.7259467,9.16392312 12.7005619,9.02796533 C12.6753061,8.89213581 12.7066182,8.84878323 12.7383169,8.94549283 C12.7571299,9.00244118 12.7673096,9.0632374 12.7673096,9.1264706 C12.7673096,9.15186649 12.7652479,9.17662106 12.7616399,9.20086259 M13.8819247,8.02021031 C13.8819247,8.34689378 13.616216,8.61175494 13.2881474,8.6125247 C12.9594346,8.61278104 12.6929594,8.34740683 12.6929594,8.02021031 C12.6929594,7.69134638 12.9594346,7.42610044 13.2881474,7.42610044 C13.6169891,7.42610044 13.8834643,7.69134638 13.8819247,8.02021031 M18.229535,6.97397667 C18.2795313,6.93165019 18.4148306,6.82929706 18.5943277,6.79620545 C18.7155816,6.77375959 18.8417321,6.78645753 18.9802528,6.83519712 L32.996099,11.7708495 C33.149696,11.8248479 33.2692747,11.9089878 33.3547066,12.0224997 C33.4731257,12.180262 33.5352345,12.5124608 33.4813725,12.7020321 C33.4427155,12.8383747 33.3611494,12.9597106 33.2374472,13.0650137 L29.3548731,16.3678901 C29.2043688,16.4958957 28.9309354,16.5464309 28.7443512,16.4806325 L20.64714,13.6293668 L20.5167372,13.583449 L19.3105119,13.1586451 C19.1239277,13.0929749 18.943271,12.8826251 18.9071912,12.6888211 L17.9749147,7.69044855 C17.9214392,7.40416763 18.0071288,7.16316321 18.229535,6.97397667 M42.9985819,26.69196 C42.9893043,26.2802388 42.9460085,25.8645415 42.8698543,25.4564116 C42.7937002,25.0485382 42.6844299,24.6452823 42.5443629,24.25652 C42.5260653,24.2063695 42.5071234,24.1567321 42.4877949,24.1069664 L42.4849601,24.099399 C41.6958431,22.0546452 40.0411973,20.4586803 37.9453469,19.7206604 L36.8404027,19.3316416 C36.6538186,19.2659714 36.6245682,19.1088504 36.7750725,18.9808448 L37.4026035,18.4470181 L37.4876488,18.3746783 L37.6659861,18.2229443 C39.3559386,16.7853831 40.3248103,14.7045877 40.3240372,12.5134869 L40.3239083,12.4962998 C40.3239083,12.4458928 40.3239083,12.3953575 40.3227486,12.3454636 C40.3133421,11.9337424 40.2700463,11.518045 40.194021,11.1100434 C40.1178669,10.7019135 40.0083389,10.2984011 39.8687873,9.91130616 C39.8513917,9.86320788 39.8332229,9.81562266 39.8147965,9.76790917 L39.8089979,9.75290251 C39.0198809,7.70814871 37.365364,6.11231213 35.2695136,5.37442049 L21.2536673,0.438896332 C19.9888123,-0.00655781087 18.6360772,-0.115452302 17.3415851,0.123756444 C16.5036316,0.278697016 15.7015001,0.574084545 14.9587714,1.00132547 C14.9054249,1.03185185 14.8580057,1.05929993 14.8116174,1.08738932 C14.4577775,1.30133044 14.1177253,1.54669576 13.8009961,1.81604609 C13.4840092,2.08565295 13.1877682,2.38193831 12.9209065,2.69566732 C12.8867595,2.73555682 12.8537723,2.77608763 12.820785,2.8167467 L12.8127959,2.82649462 C11.4284909,4.52904524 10.8671922,6.75336592 11.2729612,8.92894702 L11.4869918,10.0759946 C11.5230716,10.2697986 11.4011734,10.3735626 11.2144604,10.3077642 L10.1096451,9.91874536 C8.95960113,9.51382203 7.73688216,9.38697085 6.55140271,9.54717016 C6.35515431,9.57359215 6.03958484,9.63195139 5.84681557,9.67722789 C5.13565675,9.84409684 4.45336179,10.1139602 3.81397602,10.4815593 L3.80418293,10.4872028 C3.7586966,10.5133683 3.71333912,10.539662 3.66759508,10.5672383 C3.31388409,10.7813077 2.97396074,11.0264165 2.65723156,11.2960234 C2.34037352,11.565502 2.04400365,11.8615308 1.77688421,12.1755163 C1.7428661,12.2155341 1.70974999,12.2560649 1.67676274,12.2965957 L1.66890249,12.3063436 C0.28446866,14.0090225 -0.276701234,16.2333432 0.129067766,18.4089243 L2.84291372,32.9588444 C3.24868272,35.1344255 4.57461572,37.0098734 6.48401078,38.1063857 C6.53181652,38.1338338 6.57949341,38.1611536 6.6280723,38.1877039 C6.99118981,38.3856123 7.37466664,38.5562008 7.76755,38.6945956 C8.16069106,38.8328621 8.56633121,38.9403457 8.9739042,39.0135833 C9.02518907,39.0228182 9.0766028,39.031027 9.12801653,39.0391075 L9.14064446,39.0411597 C9.98916427,39.1746805 10.8443846,39.1639064 11.6823382,39.0089659 C12.9768302,38.7698854 14.2001935,38.1847539 15.2200924,37.3171893 L16.1110059,36.5591605 C16.2615103,36.4311549 16.4127878,36.484512 16.4488676,36.6781877 L16.6627693,37.8252353 C17.0686672,40.0008164 18.3946002,41.8763925 20.3039952,42.9729049 C20.3516721,43.0002247 20.399349,43.0276728 20.4480567,43.0542231 C20.8106588,43.2518749 21.1940068,43.4223352 21.5872767,43.5608582 C21.9799024,43.6991247 22.3861868,43.8064801 22.7942752,43.8797177 C22.8433695,43.8884395 22.892335,43.8961352 22.9415581,43.9039592 L22.9620463,43.9070375 C23.8137875,44.0405583 24.6678482,44.0301691 25.5009052,43.8763829 C26.7956549,43.6370459 28.0194048,43.0517861 29.0398191,42.1835802 L40.3418194,32.5693125 C42.0319008,31.1316231 43.0006436,29.0509559 43,26.8603681 L43,26.8453615 C43,26.7940566 43,26.7427518 42.9985819,26.69196" fill="#efefef" mask="url(#mask-2)"></path></g></g></g></g></svg>